<svg width="50" height="20" viewBox="0 0 50 20" fill="none" xmlns="http://www.w3.org/2000/svg">
<path d="M50 0H0V20H50V0Z" fill="#D63A4F"/>
<path fill-rule="evenodd" clip-rule="evenodd" d="M24.3666 4H26.222L29.116 13.7368C29.2096 14.0248 29.2556 14.0807 29.3733 14.0807C29.4762 14.0807 29.5243 14.0379 29.5975 13.8343L29.6807 13.5764L32.5102 4H34.3659L31.6447 13.1736C31.2845 14.4017 30.5591 14.9996 29.3733 14.9996C28.2505 14.9996 27.5303 14.4631 27.1514 13.3726L27.088 13.1744L24.3666 4ZM7.86001 4L7.85901 13.2382L12.7933 13.0914V14.8463L7.16721 14.9995C6.48643 15.0164 6.05624 14.6076 6.00513 13.9255L6 13.7855V4H7.86001ZM23.6671 4V5.75407L21.4517 5.75302L21.4527 9.47781C21.4527 9.86685 21.2484 10.1453 20.9218 10.2273L20.8203 10.246L20.7119 10.2523H18.2172C18.0714 10.2523 17.999 10.3062 17.9813 10.4335L17.9769 10.5035V13.099H20.1913V14.853H13.9025V13.099H16.1159L16.1169 9.85876C16.1169 9.46972 16.3213 9.19125 16.6478 9.10924L16.7494 9.09061L16.8577 9.08429H19.3524C19.4982 9.08429 19.5706 9.03041 19.5883 8.90302L19.5927 8.83311L19.5917 5.75302L17.3783 5.75407V4H23.6671ZM43 4V5.75407L38.0667 5.75302V8.54111L42.2992 8.54216V10.2962H38.0667V13.099H43V14.853H36.2067V4H43Z" fill="white"/>
</svg>
